<?xml version="1.0" encoding="iso-8859-1"?>
<!-- Uploaded to: SVG Repo, www.svgrepo.com, Generator: SVG Repo Mixer Tools -->
<svg width="21" height="20" fill="#000000" version="1.1" id="Layer_1" xmlns="http://www.w3.org/2000/svg" xmlns:xlink="http://www.w3.org/1999/xlink" 
	 viewBox="0 0 512 512" xml:space="preserve">
<g>
	<g>
		<path d="M176.825,36.948v153.072h237.526V36.948H176.825z M398.516,174.186H192.66V52.784h205.856V174.186z"/>
	</g>
</g>
<g>
	<g>
		<rect x="364.206" y="401.155" width="52.784" height="15.835"/>
	</g>
</g>
<g>
	<g>
		<rect x="311.423" y="443.381" width="105.567" height="15.835"/>
	</g>
</g>
<g>
	<g>
		<path d="M456.577,84.454V18.474C456.577,8.288,448.289,0,438.103,0H39.588v31.67H2.639v68.619h36.948v26.392H7.918v68.619h31.67
			v26.392H7.918v68.619h31.67v26.392H7.918v68.619h31.67v26.392H7.918v68.619h31.67V512h398.515
			c10.186,0,18.474-8.288,18.474-18.474V290.309h52.784V84.454H456.577z M18.474,84.454V47.505h71.258
			c1.43,0,2.639,1.209,2.639,2.639v31.67c0,1.43-1.209,2.639-2.639,2.639H18.474z M23.753,179.464v-36.948h65.979
			c1.43,0,2.639,1.209,2.639,2.639v31.67c0,1.43-1.209,2.639-2.639,2.639H23.753z M23.753,274.474v-36.948h65.979
			c1.43,0,2.639,1.209,2.639,2.639v31.67c0,1.43-1.209,2.639-2.639,2.639H23.753z M23.753,369.485v-36.948h65.979
			c1.43,0,2.639,1.209,2.639,2.639v31.67c0,1.43-1.209,2.639-2.639,2.639H23.753z M23.753,464.495v-36.948h65.979
			c1.43,0,2.639,1.209,2.639,2.639v31.67c0,1.43-1.209,2.639-2.639,2.639H23.753z M440.742,493.526c0,1.43-1.209,2.639-2.639,2.639
			H55.423V480.33h34.309c10.186,0,18.474-8.288,18.474-18.474v-31.67c0-10.186-8.288-18.474-18.474-18.474H55.423V385.32h34.309
			c10.186,0,18.474-8.288,18.474-18.474v-31.67c0-10.186-8.288-18.474-18.474-18.474H55.423v-26.392h34.309
			c10.186,0,18.474-8.288,18.474-18.474v-31.67c0-10.186-8.288-18.474-18.474-18.474H55.423v-26.392h34.309
			c10.186,0,18.474-8.288,18.474-18.474v-31.67c0-10.186-8.288-18.474-18.474-18.474H55.423v-26.392h34.309
			c10.186,0,18.474-8.288,18.474-18.474v-31.67c0-10.186-8.288-18.474-18.474-18.474H55.423V15.835h79.175v403.794h15.835V15.835
			h287.67c1.43,0,2.639,1.209,2.639,2.639V493.526z M493.526,274.474h-36.948v-47.505h36.948V274.474z M493.526,211.134h-36.948
			v-47.505h36.948V211.134z M493.526,147.794h-36.948v-47.505h36.948V147.794z"/>
	</g>
</g>
</svg>