<svg id="visual" viewBox="0 0 900 600" width="900" height="600" xmlns="http://www.w3.org/2000/svg" xmlns:xlink="http://www.w3.org/1999/xlink" version="1.1"><rect x="0" y="0" width="900" height="600" fill="#140021"></rect><path d="M0 345L75 345L75 419L150 419L150 360L225 360L225 337L300 337L300 298L375 298L375 369L450 369L450 352L525 352L525 343L600 343L600 326L675 326L675 438L750 438L750 409L825 409L825 325L900 325L900 382L900 601L900 601L825 601L825 601L750 601L750 601L675 601L675 601L600 601L600 601L525 601L525 601L450 601L450 601L375 601L375 601L300 601L300 601L225 601L225 601L150 601L150 601L75 601L75 601L0 601Z" fill="#e0ac44"></path><path d="M0 408L75 408L75 415L150 415L150 443L225 443L225 381L300 381L300 411L375 411L375 409L450 409L450 348L525 348L525 374L600 374L600 457L675 457L675 373L750 373L750 473L825 473L825 471L900 471L900 416L900 601L900 601L825 601L825 601L750 601L750 601L675 601L675 601L600 601L600 601L525 601L525 601L450 601L450 601L375 601L375 601L300 601L300 601L225 601L225 601L150 601L150 601L75 601L75 601L0 601Z" fill="#c79c45"></path><path d="M0 485L75 485L75 488L150 488L150 439L225 439L225 468L300 468L300 430L375 430L375 512L450 512L450 439L525 439L525 410L600 410L600 409L675 409L675 438L750 438L750 491L825 491L825 466L900 466L900 404L900 601L900 601L825 601L825 601L750 601L750 601L675 601L675 601L600 601L600 601L525 601L525 601L450 601L450 601L375 601L375 601L300 601L300 601L225 601L225 601L150 601L150 601L75 601L75 601L0 601Z" fill="#af8c45"></path><path d="M0 491L75 491L75 485L150 485L150 506L225 506L225 511L300 511L300 537L375 537L375 503L450 503L450 487L525 487L525 455L600 455L600 482L675 482L675 475L750 475L750 473L825 473L825 474L900 474L900 470L900 601L900 601L825 601L825 601L750 601L750 601L675 601L675 601L600 601L600 601L525 601L525 601L450 601L450 601L375 601L375 601L300 601L300 601L225 601L225 601L150 601L150 601L75 601L75 601L0 601Z" fill="#987c45"></path><path d="M0 533L75 533L75 517L150 517L150 573L225 573L225 542L300 542L300 572L375 572L375 541L450 541L450 525L525 525L525 562L600 562L600 528L675 528L675 572L750 572L750 568L825 568L825 508L900 508L900 548L900 601L900 601L825 601L825 601L750 601L750 601L675 601L675 601L600 601L600 601L525 601L525 601L450 601L450 601L375 601L375 601L300 601L300 601L225 601L225 601L150 601L150 601L75 601L75 601L0 601Z" fill="#816d44"></path></svg>