<svg id="visual" viewBox="0 0 900 600" width="900" height="600" xmlns="http://www.w3.org/2000/svg" xmlns:xlink="http://www.w3.org/1999/xlink" version="1.1"><rect width="900" height="600" fill="#4b4b4b"></rect><g><g transform="translate(550 169)"><path d="M0 -68.6L37.1 -57.7L62.4 -28.5L67.9 9.8L51.8 44.9L19.3 65.8L-19.3 65.8L-51.8 44.9L-67.9 9.8L-62.4 -28.5L-37.1 -57.7Z" fill="#e0ac44"></path></g><g transform="translate(167 151)"><path d="M0 -53L28.7 -44.6L48.2 -22L52.5 7.5L40.1 34.7L14.9 50.9L-14.9 50.9L-40.1 34.7L-52.5 7.5L-48.2 -22L-28.7 -44.6Z" fill="#e0ac44"></path></g><g transform="translate(358 365)"><path d="M0 -53L28.7 -44.6L48.2 -22L52.5 7.5L40.1 34.7L14.9 50.9L-14.9 50.9L-40.1 34.7L-52.5 7.5L-48.2 -22L-28.7 -44.6Z" fill="#e0ac44"></path></g><g transform="translate(461 553)"><path d="M0 -60L32.4 -50.5L54.6 -24.9L59.4 8.5L45.3 39.3L16.9 57.6L-16.9 57.6L-45.3 39.3L-59.4 8.5L-54.6 -24.9L-32.4 -50.5Z" fill="#e0ac44"></path></g><g transform="translate(891 508)"><path d="M0 -46L24.9 -38.7L41.8 -19.1L45.5 6.5L34.8 30.1L13 44.1L-13 44.1L-34.8 30.1L-45.5 6.5L-41.8 -19.1L-24.9 -38.7Z" fill="#e0ac44"></path></g><g transform="translate(157 573)"><path d="M0 -36L19.5 -30.3L32.7 -15L35.6 5.1L27.2 23.6L10.1 34.5L-10.1 34.5L-27.2 23.6L-35.6 5.1L-32.7 -15L-19.5 -30.3Z" fill="#e0ac44"></path></g></g></svg>